<svg xmlns="http://www.w3.org/2000/svg" height="24" width="83" class="text-purple-30 " viewBox="0 0 110 32"><path fill="#371987d9" d="M22.1016 8.61612H2.37198c-.56453 0-1.01025-.431-1.01025-.97693V3.87514c0-.54592.44572-.97692 1.01025-.97692H22.1016c.5645 0 1.0102.431 1.0102.97692v3.76405c0 .54593-.4755.97693-1.0102.97693ZM48.9919 28.126v-3.7641c0-.5459-.4457-.9769-1.0103-.9769H28.7571c-.5645 0-1.0102.431-1.0102.9769v3.7641c0 .5459.4457.9769 1.0102.9769h19.2245c.5646 0 1.0103-.431 1.0103-.9769ZM9.29515 23.385l7.01215-7.4995c.3566-.3733.3566-.9768-.0295-1.3504l-2.7634-2.6721c-.416-.4023-1.0697-.3736-1.4559.0287L1.59945 23.0976c-.17828.1725-.26742.4023-.26742.661v4.3674c0 .5459.44569.9769 1.01025.9769H22.0718c.5645 0 1.0102-.431 1.0102-.9769v-3.7641c0-.5459-.4457-.9769-1.0102-.9769H9.29515ZM48.9919 7.63919V3.87514c0-.54592-.4457-.97692-1.0103-.97692H28.7571c-.5645 0-1.0102.431-1.0102.97692V17.8681c0 .5461.4457.9769 1.0102.9769h15.3617c.5646 0 1.0102-.4308 1.0102-.9769v-3.7352c0-.546-.4456-.977-1.0102-.977H33.66V8.61612h14.3216c.5646 0 1.0103-.431 1.0103-.97693ZM71.3362 22.0345l2.7632 2.672c.4159.4023.3864 1.0634-.0595 1.4367-5.5563 4.5687-13.9651 4.2238-19.0461-1.0918-4.8728-5.0569-4.8728-13.0161 0-18.1018 5.081-5.31564 13.4898-5.68915 19.0461-1.09187.4459.37354.4754 1.03439.0595 1.43667l-2.7632 2.67218c-.3566.34482-.9509.37352-1.3371.08622-3.2092-2.47107-7.9929-2.18373-10.8157.9194-2.6148 2.8446-2.6148 7.212 0 10.0566 2.8228 3.1031 7.6065 3.4193 10.8157.9195.4159-.2874.9805-.2587 1.3371.0862Zm35.8338-6.0339c0 7.3557-6.18 13.3321-13.7868 13.3321-7.6065 0-13.7868-5.9764-13.7868-13.3321 0-7.35576 6.1803-13.33223 13.7868-13.33223 7.6068 0 13.7868 5.97647 13.7868 13.33223Zm-5.913 0c0-4.1951-3.5357-7.61435-7.8738-7.61435-4.338 0-7.874 3.41925-7.874 7.61435 0 4.1949 3.536 7.6141 7.874 7.6141 4.3678 0 7.8738-3.4192 7.8738-7.6141Zm-24.6023 1.8675v-3.7352c0-.546-.4457-.977-1.0103-.977H64.4426c-.5645 0-1.0102.431-1.0102.977v3.7352c0 .5461.4457.9769 1.0102.9769h11.2018c.5646 0 1.0103-.4308 1.0103-.9769Z"></path></svg>
